<mxfile host="Electron" modified="2024-06-24T10:33:38.176Z" agent="Mozilla/5.0 (Macintosh; Intel Mac OS X 10_15_7) AppleWebKit/537.36 (KHTML, like Gecko) draw.io/21.2.8 Chrome/112.0.5615.165 Electron/24.2.0 Safari/537.36" etag="y5lJ08IRjLlfW9oNDTJ6" version="21.2.8" type="device">
  <diagram name="Page-1" id="4fDpvOj6Ap3gWiHqsom4">
    <mxGraphModel dx="1054" dy="1451" grid="1" gridSize="10" guides="1" tooltips="1" connect="1" arrows="1" fold="1" page="1" pageScale="1" pageWidth="1169" pageHeight="827" math="0" shadow="0">
      <root>
        <mxCell id="0" />
        <mxCell id="1" parent="0" />
        <mxCell id="s2ZCeWvbByKgTgvabVwQ-24" value="" style="rounded=0;whiteSpace=wrap;html=1;fillColor=none;dashed=1;dashPattern=1 4;" parent="1" vertex="1">
          <mxGeometry x="290" y="290" width="150" height="250" as="geometry" />
        </mxCell>
        <mxCell id="s2ZCeWvbByKgTgvabVwQ-14" value="" style="rounded=0;whiteSpace=wrap;html=1;fillColor=none;dashed=1;dashPattern=1 4;" parent="1" vertex="1">
          <mxGeometry x="290" y="20" width="470" height="240" as="geometry" />
        </mxCell>
        <mxCell id="s2ZCeWvbByKgTgvabVwQ-16" value="" style="rounded=0;whiteSpace=wrap;html=1;fillColor=none;dashed=1;dashPattern=1 4;" parent="1" vertex="1">
          <mxGeometry x="470" y="290" width="290" height="250" as="geometry" />
        </mxCell>
        <mxCell id="s2ZCeWvbByKgTgvabVwQ-6" value="" style="ellipse;whiteSpace=wrap;html=1;" parent="1" vertex="1">
          <mxGeometry x="490" y="170" width="80" height="80" as="geometry" />
        </mxCell>
        <mxCell id="s2ZCeWvbByKgTgvabVwQ-4" value="" style="ellipse;whiteSpace=wrap;html=1;" parent="1" vertex="1">
          <mxGeometry x="650" y="410" width="80" height="80" as="geometry" />
        </mxCell>
        <mxCell id="s2ZCeWvbByKgTgvabVwQ-3" value="" style="ellipse;whiteSpace=wrap;html=1;" parent="1" vertex="1">
          <mxGeometry x="640" y="400" width="80" height="80" as="geometry" />
        </mxCell>
        <mxCell id="RLvPA5mO0UZJfV3lfqa0-3" value="" style="ellipse;whiteSpace=wrap;html=1;" parent="1" vertex="1">
          <mxGeometry x="630" y="390" width="80" height="80" as="geometry" />
        </mxCell>
        <mxCell id="RLvPA5mO0UZJfV3lfqa0-14" style="edgeStyle=orthogonalEdgeStyle;rounded=0;orthogonalLoop=1;jettySize=auto;html=1;exitX=0;exitY=0;exitDx=0;exitDy=0;entryX=1;entryY=0;entryDx=0;entryDy=0;curved=1;" parent="1" source="RLvPA5mO0UZJfV3lfqa0-1" target="RLvPA5mO0UZJfV3lfqa0-12" edge="1">
          <mxGeometry relative="1" as="geometry">
            <mxPoint x="390" y="370" as="sourcePoint" />
          </mxGeometry>
        </mxCell>
        <mxCell id="RLvPA5mO0UZJfV3lfqa0-10" style="edgeStyle=orthogonalEdgeStyle;rounded=0;orthogonalLoop=1;jettySize=auto;html=1;entryX=0.5;entryY=1;entryDx=0;entryDy=0;startArrow=classic;startFill=1;exitX=1;exitY=0.5;exitDx=0;exitDy=0;curved=1;" parent="1" source="s2ZCeWvbByKgTgvabVwQ-4" target="RLvPA5mO0UZJfV3lfqa0-9" edge="1">
          <mxGeometry relative="1" as="geometry">
            <mxPoint x="760" y="440" as="sourcePoint" />
          </mxGeometry>
        </mxCell>
        <mxCell id="s2ZCeWvbByKgTgvabVwQ-7" style="edgeStyle=orthogonalEdgeStyle;rounded=0;orthogonalLoop=1;jettySize=auto;html=1;exitX=0;exitY=0.5;exitDx=0;exitDy=0;entryX=1;entryY=0.5;entryDx=0;entryDy=0;startArrow=classic;startFill=1;" parent="1" source="RLvPA5mO0UZJfV3lfqa0-9" target="s2ZCeWvbByKgTgvabVwQ-5" edge="1">
          <mxGeometry relative="1" as="geometry" />
        </mxCell>
        <mxCell id="RLvPA5mO0UZJfV3lfqa0-9" value="Audio&lt;br&gt;(I2S)" style="ellipse;whiteSpace=wrap;html=1;" parent="1" vertex="1">
          <mxGeometry x="670" y="160" width="80" height="80" as="geometry" />
        </mxCell>
        <mxCell id="RLvPA5mO0UZJfV3lfqa0-13" style="edgeStyle=orthogonalEdgeStyle;rounded=0;orthogonalLoop=1;jettySize=auto;html=1;exitX=1;exitY=1;exitDx=0;exitDy=0;entryX=0;entryY=1;entryDx=0;entryDy=0;curved=1;" parent="1" source="RLvPA5mO0UZJfV3lfqa0-12" target="RLvPA5mO0UZJfV3lfqa0-1" edge="1">
          <mxGeometry relative="1" as="geometry">
            <mxPoint x="350" y="410" as="targetPoint" />
          </mxGeometry>
        </mxCell>
        <mxCell id="RLvPA5mO0UZJfV3lfqa0-12" value="awe_&lt;br&gt;standalone_&lt;br&gt;tuning" style="ellipse;whiteSpace=wrap;html=1;" parent="1" vertex="1">
          <mxGeometry x="325" y="430" width="80" height="80" as="geometry" />
        </mxCell>
        <mxCell id="RLvPA5mO0UZJfV3lfqa0-15" value="c_tuning_&lt;br&gt;from_host" style="text;html=1;align=center;verticalAlign=middle;resizable=0;points=[];autosize=1;strokeColor=none;fillColor=none;" parent="1" vertex="1">
          <mxGeometry x="505" y="460" width="80" height="40" as="geometry" />
        </mxCell>
        <mxCell id="RLvPA5mO0UZJfV3lfqa0-18" value="c_tuning_&lt;br&gt;to_host" style="text;html=1;align=center;verticalAlign=middle;resizable=0;points=[];autosize=1;strokeColor=none;fillColor=none;" parent="1" vertex="1">
          <mxGeometry x="373" y="390" width="80" height="40" as="geometry" />
        </mxCell>
        <mxCell id="RLvPA5mO0UZJfV3lfqa0-2" value="" style="ellipse;whiteSpace=wrap;html=1;" parent="1" vertex="1">
          <mxGeometry x="620" y="380" width="80" height="80" as="geometry" />
        </mxCell>
        <mxCell id="RLvPA5mO0UZJfV3lfqa0-1" value="awe_xcore&lt;br&gt;_main&lt;br&gt;0..4" style="ellipse;whiteSpace=wrap;html=1;" parent="1" vertex="1">
          <mxGeometry x="610" y="370" width="80" height="80" as="geometry" />
        </mxCell>
        <mxCell id="s2ZCeWvbByKgTgvabVwQ-5" value="Decouple&lt;br&gt;and&lt;br&gt;Buffer" style="ellipse;whiteSpace=wrap;html=1;" parent="1" vertex="1">
          <mxGeometry x="480" y="160" width="80" height="80" as="geometry" />
        </mxCell>
        <mxCell id="s2ZCeWvbByKgTgvabVwQ-9" style="edgeStyle=orthogonalEdgeStyle;rounded=0;orthogonalLoop=1;jettySize=auto;html=1;exitX=1;exitY=0.5;exitDx=0;exitDy=0;entryX=0;entryY=0.5;entryDx=0;entryDy=0;startArrow=classic;startFill=1;" parent="1" source="s2ZCeWvbByKgTgvabVwQ-8" target="s2ZCeWvbByKgTgvabVwQ-5" edge="1">
          <mxGeometry relative="1" as="geometry" />
        </mxCell>
        <mxCell id="s2ZCeWvbByKgTgvabVwQ-11" style="edgeStyle=orthogonalEdgeStyle;rounded=0;orthogonalLoop=1;jettySize=auto;html=1;exitX=0.5;exitY=0;exitDx=0;exitDy=0;entryX=0.5;entryY=1;entryDx=0;entryDy=0;startArrow=classic;startFill=1;" parent="1" source="s2ZCeWvbByKgTgvabVwQ-8" target="s2ZCeWvbByKgTgvabVwQ-10" edge="1">
          <mxGeometry relative="1" as="geometry" />
        </mxCell>
        <mxCell id="s2ZCeWvbByKgTgvabVwQ-8" value="XUD" style="ellipse;whiteSpace=wrap;html=1;" parent="1" vertex="1">
          <mxGeometry x="320" y="160" width="80" height="80" as="geometry" />
        </mxCell>
        <mxCell id="s2ZCeWvbByKgTgvabVwQ-12" style="edgeStyle=orthogonalEdgeStyle;orthogonalLoop=1;jettySize=auto;html=1;exitX=1;exitY=0.5;exitDx=0;exitDy=0;entryX=0.5;entryY=0;entryDx=0;entryDy=0;startArrow=classic;startFill=1;curved=1;" parent="1" source="s2ZCeWvbByKgTgvabVwQ-10" target="s2ZCeWvbByKgTgvabVwQ-5" edge="1">
          <mxGeometry relative="1" as="geometry" />
        </mxCell>
        <mxCell id="s2ZCeWvbByKgTgvabVwQ-10" value="Endpoint 0" style="ellipse;whiteSpace=wrap;html=1;" parent="1" vertex="1">
          <mxGeometry x="320" y="30" width="80" height="80" as="geometry" />
        </mxCell>
        <mxCell id="s2ZCeWvbByKgTgvabVwQ-17" value="lib_xua" style="text;html=1;align=center;verticalAlign=middle;resizable=0;points=[];autosize=1;strokeColor=none;fillColor=none;fontSize=15;" parent="1" vertex="1">
          <mxGeometry x="630" y="20" width="70" height="30" as="geometry" />
        </mxCell>
        <mxCell id="s2ZCeWvbByKgTgvabVwQ-18" value="lib_awe" style="text;html=1;align=center;verticalAlign=middle;resizable=0;points=[];autosize=1;strokeColor=none;fillColor=none;fontSize=15;" parent="1" vertex="1">
          <mxGeometry x="630" y="290" width="70" height="30" as="geometry" />
        </mxCell>
        <mxCell id="s2ZCeWvbByKgTgvabVwQ-20" value="c_xud_in /&lt;br&gt;c_xud_out" style="text;whiteSpace=wrap;html=1;align=center;" parent="1" vertex="1">
          <mxGeometry x="400" y="160" width="80" height="40" as="geometry" />
        </mxCell>
        <mxCell id="s2ZCeWvbByKgTgvabVwQ-21" value="c_xud_in /&lt;br&gt;c_xud_out" style="text;whiteSpace=wrap;html=1;align=center;" parent="1" vertex="1">
          <mxGeometry x="287" y="119" width="80" height="40" as="geometry" />
        </mxCell>
        <mxCell id="s2ZCeWvbByKgTgvabVwQ-22" value="c_aud_ctl" style="text;whiteSpace=wrap;html=1;" parent="1" vertex="1">
          <mxGeometry x="430" y="90" width="80" height="40" as="geometry" />
        </mxCell>
        <mxCell id="s2ZCeWvbByKgTgvabVwQ-23" value="c_mix_out" style="text;whiteSpace=wrap;html=1;" parent="1" vertex="1">
          <mxGeometry x="586" y="173" width="90" height="40" as="geometry" />
        </mxCell>
        <mxCell id="s2ZCeWvbByKgTgvabVwQ-26" value="application" style="text;html=1;align=center;verticalAlign=middle;resizable=0;points=[];autosize=1;strokeColor=none;fillColor=none;fontSize=15;" parent="1" vertex="1">
          <mxGeometry x="315" y="510" width="100" height="30" as="geometry" />
        </mxCell>
        <mxCell id="EbG6xX5wL2wGJDzyXwHR-1" style="edgeStyle=orthogonalEdgeStyle;rounded=0;orthogonalLoop=1;jettySize=auto;html=1;exitX=0.5;exitY=0;exitDx=0;exitDy=0;entryX=0;entryY=1;entryDx=0;entryDy=0;startArrow=classic;startFill=1;curved=1;" parent="1" source="EbG6xX5wL2wGJDzyXwHR-2" target="RLvPA5mO0UZJfV3lfqa0-9" edge="1">
          <mxGeometry relative="1" as="geometry">
            <mxPoint x="777" y="248" as="targetPoint" />
          </mxGeometry>
        </mxCell>
        <mxCell id="EbG6xX5wL2wGJDzyXwHR-2" value="i2c remote master" style="ellipse;whiteSpace=wrap;html=1;" parent="1" vertex="1">
          <mxGeometry x="325" y="300" width="80" height="80" as="geometry" />
        </mxCell>
        <mxCell id="WukCyzdANew3QvLBoNNb-1" value="Tile[1]" style="text;html=1;align=center;verticalAlign=middle;resizable=0;points=[];autosize=1;strokeColor=none;fillColor=none;" parent="1" vertex="1">
          <mxGeometry x="640" y="-20" width="60" height="30" as="geometry" />
        </mxCell>
        <mxCell id="WukCyzdANew3QvLBoNNb-2" value="Tile[0]" style="text;html=1;align=center;verticalAlign=middle;resizable=0;points=[];autosize=1;strokeColor=none;fillColor=none;" parent="1" vertex="1">
          <mxGeometry x="410" y="-20" width="60" height="30" as="geometry" />
        </mxCell>
        <mxCell id="dMZ_BBg6TpExUivcA0zT-1" value="" style="endArrow=none;dashed=1;html=1;dashPattern=1 3;strokeWidth=2;rounded=0;" parent="1" edge="1">
          <mxGeometry width="50" height="50" relative="1" as="geometry">
            <mxPoint x="600" y="650" as="sourcePoint" />
            <mxPoint x="600" y="-20" as="targetPoint" />
          </mxGeometry>
        </mxCell>
      </root>
    </mxGraphModel>
  </diagram>
</mxfile>
